<?xml version="1.0" encoding="UTF-8" standalone="no"?>
<!DOCTYPE svg PUBLIC "-//W3C//DTD SVG 1.1//EN"
 "http://www.w3.org/Graphics/SVG/1.1/DTD/svg11.dtd">
<!-- Generated by graphviz version 2.40.1 (20161225.0304)
 -->
<!-- Title: dependencies Pages: 1 -->
<svg width="652pt" height="284pt"
 viewBox="0.00 0.00 652.00 284.00" xmlns="http://www.w3.org/2000/svg" xmlns:xlink="http://www.w3.org/1999/xlink">
<g id="graph0" class="graph" transform="scale(1 1) rotate(0) translate(4 280)">
<title>dependencies</title>
<polygon fill="#ffffff" stroke="transparent" points="-4,4 -4,-280 648,-280 648,4 -4,4"/>
<text text-anchor="start" x="301.0091" y="-42.4" font-family="sans-serif" font-weight="bold" font-size="14.00" fill="#000000">Legend</text>
<polygon fill="#ffffb3" stroke="transparent" points="88,-10 88,-30 108,-30 108,-10 88,-10"/>
<text text-anchor="start" x="111.629" y="-15.4" font-family="sans-serif" font-size="14.00" fill="#000000"> &#160;Declarations</text>
<polygon fill="#8dd3c7" stroke="transparent" points="201,-10 201,-30 221,-30 221,-10 201,-10"/>
<text text-anchor="start" x="224.7251" y="-15.4" font-family="sans-serif" font-size="14.00" fill="#000000"> &#160;Module</text>
<polygon fill="#80b1d3" stroke="transparent" points="287,-10 287,-30 307,-30 307,-10 287,-10"/>
<text text-anchor="start" x="310.7812" y="-15.4" font-family="sans-serif" font-size="14.00" fill="#000000"> &#160;Bootstrap</text>
<polygon fill="#fdb462" stroke="transparent" points="384,-10 384,-30 404,-30 404,-10 384,-10"/>
<text text-anchor="start" x="407.6732" y="-15.4" font-family="sans-serif" font-size="14.00" fill="#000000"> &#160;Providers</text>
<polygon fill="#fb8072" stroke="transparent" points="480,-10 480,-30 500,-30 500,-10 480,-10"/>
<text text-anchor="start" x="503.7258" y="-15.4" font-family="sans-serif" font-size="14.00" fill="#000000"> &#160;Exports</text>
<g id="clust1" class="cluster">
<title>cluster_DepartmentModule</title>
<polygon fill="none" stroke="#000000" stroke-dasharray="1,5" points="8,-70 8,-268 636,-268 636,-70 8,-70"/>
</g>
<g id="clust2" class="cluster">
<title>cluster_DepartmentModule_declarations</title>
<polygon fill="none" stroke="#000000" points="327,-78 327,-130 628,-130 628,-78 327,-78"/>
</g>
<g id="clust5" class="cluster">
<title>cluster_DepartmentModule_imports</title>
<polygon fill="none" stroke="#000000" points="16,-78 16,-130 319,-130 319,-78 16,-78"/>
</g>
<g id="clust6" class="cluster">
<title>cluster_DepartmentModule_exports</title>
<polygon fill="none" stroke="#000000" points="219,-208 219,-260 409,-260 409,-208 219,-208"/>
</g>
<!-- DepartmentListPage -->
<g id="node1" class="node">
<title>DepartmentListPage</title>
<polygon fill="#ffffb3" stroke="#000000" points="619.573,-122 488.427,-122 488.427,-86 619.573,-86 619.573,-122"/>
<text text-anchor="middle" x="554" y="-99.8" font-family="Times,serif" font-size="14.00" fill="#000000">DepartmentListPage</text>
</g>
<!-- DepartmentModule -->
<g id="node3" class="node">
<title>DepartmentModule</title>
<polygon fill="#8dd3c7" stroke="#000000" points="376.6331,-187 373.6331,-191 352.6331,-191 349.6331,-187 251.3669,-187 251.3669,-151 376.6331,-151 376.6331,-187"/>
<text text-anchor="middle" x="314" y="-164.8" font-family="Times,serif" font-size="14.00" fill="#000000">DepartmentModule</text>
</g>
<!-- DepartmentListPage&#45;&gt;DepartmentModule -->
<g id="edge1" class="edge">
<title>DepartmentListPage&#45;&gt;DepartmentModule</title>
<path fill="none" stroke="#000000" d="M554,-122.1061C554,-141.3391 554,-169 554,-169 554,-169 386.7437,-169 386.7437,-169"/>
<polygon fill="#000000" stroke="#000000" points="386.7437,-165.5001 376.7437,-169 386.7437,-172.5001 386.7437,-165.5001"/>
</g>
<!-- DepartmentNewPage -->
<g id="node2" class="node">
<title>DepartmentNewPage</title>
<polygon fill="#ffffb3" stroke="#000000" points="470.7227,-122 335.2773,-122 335.2773,-86 470.7227,-86 470.7227,-122"/>
<text text-anchor="middle" x="403" y="-99.8" font-family="Times,serif" font-size="14.00" fill="#000000">DepartmentNewPage</text>
</g>
<!-- DepartmentNewPage&#45;&gt;DepartmentModule -->
<g id="edge2" class="edge">
<title>DepartmentNewPage&#45;&gt;DepartmentModule</title>
<path fill="none" stroke="#000000" d="M355.9776,-122.1061C355.9776,-122.1061 355.9776,-140.991 355.9776,-140.991"/>
<polygon fill="#000000" stroke="#000000" points="352.4776,-140.9909 355.9776,-150.991 359.4776,-140.991 352.4776,-140.9909"/>
</g>
<!-- DepartmentRoutingModule  -->
<g id="node6" class="node">
<title>DepartmentRoutingModule </title>
<polygon fill="#fb8072" stroke="#000000" points="401.2506,-252 226.7494,-252 226.7494,-216 401.2506,-216 401.2506,-252"/>
<text text-anchor="middle" x="314" y="-229.8" font-family="Times,serif" font-size="14.00" fill="#000000">DepartmentRoutingModule </text>
</g>
<!-- DepartmentModule&#45;&gt;DepartmentRoutingModule  -->
<g id="edge5" class="edge">
<title>DepartmentModule&#45;&gt;DepartmentRoutingModule </title>
<path fill="none" stroke="#000000" stroke-dasharray="5,2" d="M314,-187.1061C314,-187.1061 314,-205.991 314,-205.991"/>
<polygon fill="#000000" stroke="#000000" points="310.5001,-205.9909 314,-215.991 317.5001,-205.991 310.5001,-205.9909"/>
</g>
<!-- DepartmentRoutingModule -->
<g id="node4" class="node">
<title>DepartmentRoutingModule</title>
<polygon fill="#8dd3c7" stroke="#000000" points="311.2506,-122 308.2506,-126 287.2506,-126 284.2506,-122 140.7494,-122 140.7494,-86 311.2506,-86 311.2506,-122"/>
<text text-anchor="middle" x="226" y="-99.8" font-family="Times,serif" font-size="14.00" fill="#000000">DepartmentRoutingModule</text>
</g>
<!-- DepartmentRoutingModule&#45;&gt;DepartmentModule -->
<g id="edge3" class="edge">
<title>DepartmentRoutingModule&#45;&gt;DepartmentModule</title>
<path fill="none" stroke="#000000" d="M281.2795,-122.1061C281.2795,-122.1061 281.2795,-140.991 281.2795,-140.991"/>
<polygon fill="#000000" stroke="#000000" points="277.7795,-140.9909 281.2795,-150.991 284.7795,-140.991 277.7795,-140.9909"/>
</g>
<!-- SharedModule -->
<g id="node5" class="node">
<title>SharedModule</title>
<polygon fill="#8dd3c7" stroke="#000000" points="122.4231,-122 119.4231,-126 98.4231,-126 95.4231,-122 23.5769,-122 23.5769,-86 122.4231,-86 122.4231,-122"/>
<text text-anchor="middle" x="73" y="-99.8" font-family="Times,serif" font-size="14.00" fill="#000000">SharedModule</text>
</g>
<!-- SharedModule&#45;&gt;DepartmentModule -->
<g id="edge4" class="edge">
<title>SharedModule&#45;&gt;DepartmentModule</title>
<path fill="none" stroke="#000000" d="M73,-122.1061C73,-141.3391 73,-169 73,-169 73,-169 241.3092,-169 241.3092,-169"/>
<polygon fill="#000000" stroke="#000000" points="241.3093,-172.5001 251.3092,-169 241.3092,-165.5001 241.3093,-172.5001"/>
</g>
</g>
</svg>
