<?xml version="1.0" encoding="UTF-8" standalone="no"?>
<!DOCTYPE svg PUBLIC "-//W3C//DTD SVG 1.1//EN"
 "http://www.w3.org/Graphics/SVG/1.1/DTD/svg11.dtd">
<!-- Generated by graphviz version 2.40.1 (20161225.0304)
 -->
<!-- Title: dependencies Pages: 1 -->
<svg width="3358pt" height="290pt"
 viewBox="0.00 0.00 3358.00 290.00" xmlns="http://www.w3.org/2000/svg" xmlns:xlink="http://www.w3.org/1999/xlink">
<g id="graph0" class="graph" transform="scale(1 1) rotate(0) translate(4 286)">
<title>dependencies</title>
<polygon fill="#ffffff" stroke="transparent" points="-4,4 -4,-286 3354,-286 3354,4 -4,4"/>
<text text-anchor="start" x="1654.0091" y="-42.4" font-family="sans-serif" font-weight="bold" font-size="14.00" fill="#000000">Legend</text>
<polygon fill="#ffffb3" stroke="transparent" points="1441,-10 1441,-30 1461,-30 1461,-10 1441,-10"/>
<text text-anchor="start" x="1464.629" y="-15.4" font-family="sans-serif" font-size="14.00" fill="#000000"> &#160;Declarations</text>
<polygon fill="#8dd3c7" stroke="transparent" points="1554,-10 1554,-30 1574,-30 1574,-10 1554,-10"/>
<text text-anchor="start" x="1577.7251" y="-15.4" font-family="sans-serif" font-size="14.00" fill="#000000"> &#160;Module</text>
<polygon fill="#80b1d3" stroke="transparent" points="1640,-10 1640,-30 1660,-30 1660,-10 1640,-10"/>
<text text-anchor="start" x="1663.7812" y="-15.4" font-family="sans-serif" font-size="14.00" fill="#000000"> &#160;Bootstrap</text>
<polygon fill="#fdb462" stroke="transparent" points="1737,-10 1737,-30 1757,-30 1757,-10 1737,-10"/>
<text text-anchor="start" x="1760.6732" y="-15.4" font-family="sans-serif" font-size="14.00" fill="#000000"> &#160;Providers</text>
<polygon fill="#fb8072" stroke="transparent" points="1833,-10 1833,-30 1853,-30 1853,-10 1833,-10"/>
<text text-anchor="start" x="1856.7258" y="-15.4" font-family="sans-serif" font-size="14.00" fill="#000000"> &#160;Exports</text>
<g id="clust1" class="cluster">
<title>cluster_AppModule</title>
<polygon fill="none" stroke="#000000" stroke-dasharray="1,5" points="8,-70 8,-274 403,-274 403,-70 8,-70"/>
</g>
<g id="clust2" class="cluster">
<title>cluster_AppModule_declarations</title>
<polygon fill="none" stroke="#000000" points="16,-78 16,-130 138,-130 138,-78 16,-78"/>
</g>
<g id="clust4" class="cluster">
<title>cluster_AppModule_imports</title>
<polygon fill="none" stroke="#000000" points="146,-78 146,-130 395,-130 395,-78 146,-78"/>
</g>
<g id="clust6" class="cluster">
<title>cluster_AppModule_bootstrap</title>
<polygon fill="none" stroke="#000000" points="156,-214 156,-266 280,-266 280,-214 156,-214"/>
</g>
<g id="clust14" class="cluster">
<title>cluster_CoreModule</title>
<polygon fill="none" stroke="#000000" stroke-dasharray="1,5" points="411,-138 411,-206 1626,-206 1626,-138 411,-138"/>
</g>
<g id="clust15" class="cluster">
<title>cluster_CoreModule_declarations</title>
<polygon fill="none" stroke="#000000" points="1030,-146 1030,-198 1618,-198 1618,-146 1030,-146"/>
</g>
<g id="clust21" class="cluster">
<title>cluster_CoreModule_exports</title>
<polygon fill="none" stroke="#000000" points="419,-146 419,-198 1022,-198 1022,-146 419,-146"/>
</g>
<g id="clust24" class="cluster">
<title>cluster_DepartmentModule</title>
<polygon fill="none" stroke="#000000" stroke-dasharray="1,5" points="1634,-70 1634,-274 2262,-274 2262,-70 1634,-70"/>
</g>
<g id="clust25" class="cluster">
<title>cluster_DepartmentModule_declarations</title>
<polygon fill="none" stroke="#000000" points="1642,-78 1642,-130 1943,-130 1943,-78 1642,-78"/>
</g>
<g id="clust28" class="cluster">
<title>cluster_DepartmentModule_imports</title>
<polygon fill="none" stroke="#000000" points="1951,-78 1951,-130 2254,-130 2254,-78 1951,-78"/>
</g>
<g id="clust29" class="cluster">
<title>cluster_DepartmentModule_exports</title>
<polygon fill="none" stroke="#000000" points="1861,-214 1861,-266 2051,-266 2051,-214 1861,-214"/>
</g>
<g id="clust38" class="cluster">
<title>cluster_EmployeeModule</title>
<polygon fill="none" stroke="#000000" stroke-dasharray="1,5" points="2544,-70 2544,-274 3342,-274 3342,-70 2544,-70"/>
</g>
<g id="clust39" class="cluster">
<title>cluster_EmployeeModule_declarations</title>
<polygon fill="none" stroke="#000000" points="2738,-78 2738,-130 3334,-130 3334,-78 2738,-78"/>
</g>
<g id="clust44" class="cluster">
<title>cluster_EmployeeModule_imports</title>
<polygon fill="none" stroke="#000000" points="2552,-78 2552,-130 2730,-130 2730,-78 2552,-78"/>
</g>
<g id="clust45" class="cluster">
<title>cluster_EmployeeModule_exports</title>
<polygon fill="none" stroke="#000000" points="2812,-214 2812,-266 2992,-266 2992,-214 2812,-214"/>
</g>
<g id="clust54" class="cluster">
<title>cluster_SharedModule</title>
<polygon fill="none" stroke="#000000" stroke-dasharray="1,5" points="2270,-138 2270,-206 2536,-206 2536,-138 2270,-138"/>
</g>
<g id="clust55" class="cluster">
<title>cluster_SharedModule_declarations</title>
<polygon fill="none" stroke="#000000" points="2408,-146 2408,-198 2528,-198 2528,-146 2408,-146"/>
</g>
<g id="clust58" class="cluster">
<title>cluster_SharedModule_exports</title>
<polygon fill="none" stroke="#000000" points="2278,-146 2278,-198 2400,-198 2400,-146 2278,-146"/>
</g>
<!-- AppComponent -->
<g id="node1" class="node">
<title>AppComponent</title>
<polygon fill="#ffffb3" stroke="#000000" points="129.9399,-122 24.0601,-122 24.0601,-86 129.9399,-86 129.9399,-122"/>
<text text-anchor="middle" x="77" y="-99.8" font-family="Times,serif" font-size="14.00" fill="#000000">AppComponent</text>
</g>
<!-- AppModule -->
<g id="node2" class="node">
<title>AppModule</title>
<polygon fill="#8dd3c7" stroke="#000000" points="259.6571,-190 256.6571,-194 235.6571,-194 232.6571,-190 176.3429,-190 176.3429,-154 259.6571,-154 259.6571,-190"/>
<text text-anchor="middle" x="218" y="-167.8" font-family="Times,serif" font-size="14.00" fill="#000000">AppModule</text>
</g>
<!-- AppComponent&#45;&gt;AppModule -->
<g id="edge1" class="edge">
<title>AppComponent&#45;&gt;AppModule</title>
<path fill="none" stroke="#000000" d="M77,-122.2228C77,-142.3652 77,-172 77,-172 77,-172 166.0771,-172 166.0771,-172"/>
<polygon fill="#000000" stroke="#000000" points="166.0771,-175.5001 176.0771,-172 166.0771,-168.5001 166.0771,-175.5001"/>
</g>
<!-- AppComponent  -->
<g id="node5" class="node">
<title>AppComponent </title>
<polygon fill="#80b1d3" stroke="#000000" points="272.439,-258 163.561,-258 163.561,-222 272.439,-222 272.439,-258"/>
<text text-anchor="middle" x="218" y="-235.8" font-family="Times,serif" font-size="14.00" fill="#000000">AppComponent </text>
</g>
<!-- AppModule&#45;&gt;AppComponent  -->
<g id="edge4" class="edge">
<title>AppModule&#45;&gt;AppComponent </title>
<path fill="none" stroke="#000000" stroke-dasharray="1,5" d="M218,-190.2228C218,-190.2228 218,-211.7269 218,-211.7269"/>
<polygon fill="#000000" stroke="#000000" points="214.5001,-211.7269 218,-221.7269 221.5001,-211.727 214.5001,-211.7269"/>
</g>
<!-- AppRoutingModule -->
<g id="node3" class="node">
<title>AppRoutingModule</title>
<polygon fill="#8dd3c7" stroke="#000000" points="282.2744,-122 279.2744,-126 258.2744,-126 255.2744,-122 153.7256,-122 153.7256,-86 282.2744,-86 282.2744,-122"/>
<text text-anchor="middle" x="218" y="-99.8" font-family="Times,serif" font-size="14.00" fill="#000000">AppRoutingModule</text>
</g>
<!-- AppRoutingModule&#45;&gt;AppModule -->
<g id="edge2" class="edge">
<title>AppRoutingModule&#45;&gt;AppModule</title>
<path fill="none" stroke="#000000" d="M218,-122.2228C218,-122.2228 218,-143.7269 218,-143.7269"/>
<polygon fill="#000000" stroke="#000000" points="214.5001,-143.7269 218,-153.7269 221.5001,-143.727 214.5001,-143.7269"/>
</g>
<!-- CoreModule -->
<g id="node4" class="node">
<title>CoreModule</title>
<polygon fill="#8dd3c7" stroke="#000000" points="387.2619,-122 384.2619,-126 363.2619,-126 360.2619,-122 300.7381,-122 300.7381,-86 387.2619,-86 387.2619,-122"/>
<text text-anchor="middle" x="344" y="-99.8" font-family="Times,serif" font-size="14.00" fill="#000000">CoreModule</text>
</g>
<!-- CoreModule&#45;&gt;AppModule -->
<g id="edge3" class="edge">
<title>CoreModule&#45;&gt;AppModule</title>
<path fill="none" stroke="#000000" d="M329.5397,-122.2921C329.5397,-144.2057 329.5397,-178 329.5397,-178 329.5397,-178 269.8506,-178 269.8506,-178"/>
<polygon fill="#000000" stroke="#000000" points="269.8507,-174.5001 259.8506,-178 269.8506,-181.5001 269.8507,-174.5001"/>
</g>
<!-- BreadcrumbComponent  -->
<g id="node10" class="node">
<title>BreadcrumbComponent </title>
<polygon fill="#fb8072" stroke="#000000" points="1014.0246,-190 859.9754,-190 859.9754,-154 1014.0246,-154 1014.0246,-190"/>
<text text-anchor="middle" x="937" y="-167.8" font-family="Times,serif" font-size="14.00" fill="#000000">BreadcrumbComponent </text>
</g>
<!-- CoreModule&#45;&gt;BreadcrumbComponent  -->
<g id="edge9" class="edge">
<title>CoreModule&#45;&gt;BreadcrumbComponent </title>
<path fill="none" stroke="#000000" stroke-dasharray="5,2" d="M387.6047,-109C524.5507,-109 937,-109 937,-109 937,-109 937,-143.7778 937,-143.7778"/>
<polygon fill="#000000" stroke="#000000" points="933.5001,-143.7778 937,-153.7778 940.5001,-143.7778 933.5001,-143.7778"/>
</g>
<!-- FooterComponent  -->
<g id="node11" class="node">
<title>FooterComponent </title>
<polygon fill="#fb8072" stroke="#000000" points="841.8814,-190 720.1186,-190 720.1186,-154 841.8814,-154 841.8814,-190"/>
<text text-anchor="middle" x="781" y="-167.8" font-family="Times,serif" font-size="14.00" fill="#000000">FooterComponent </text>
</g>
<!-- CoreModule&#45;&gt;FooterComponent  -->
<g id="edge10" class="edge">
<title>CoreModule&#45;&gt;FooterComponent </title>
<path fill="none" stroke="#000000" stroke-dasharray="5,2" d="M387.4989,-113C498.0329,-113 781,-113 781,-113 781,-113 781,-143.9775 781,-143.9775"/>
<polygon fill="#000000" stroke="#000000" points="777.5001,-143.9774 781,-153.9775 784.5001,-143.9775 777.5001,-143.9774"/>
</g>
<!-- NotFoundComponent  -->
<g id="node12" class="node">
<title>NotFoundComponent </title>
<polygon fill="#fb8072" stroke="#000000" points="702.6127,-190 561.3873,-190 561.3873,-154 702.6127,-154 702.6127,-190"/>
<text text-anchor="middle" x="632" y="-167.8" font-family="Times,serif" font-size="14.00" fill="#000000">NotFoundComponent </text>
</g>
<!-- CoreModule&#45;&gt;NotFoundComponent  -->
<g id="edge11" class="edge">
<title>CoreModule&#45;&gt;NotFoundComponent </title>
<path fill="none" stroke="#000000" stroke-dasharray="5,2" d="M387.4283,-118C467.8838,-118 632,-118 632,-118 632,-118 632,-143.7181 632,-143.7181"/>
<polygon fill="#000000" stroke="#000000" points="628.5001,-143.718 632,-153.7181 635.5001,-143.7181 628.5001,-143.718"/>
</g>
<!-- ToastComponent  -->
<g id="node13" class="node">
<title>ToastComponent </title>
<polygon fill="#fb8072" stroke="#000000" points="542.9348,-190 427.0652,-190 427.0652,-154 542.9348,-154 542.9348,-190"/>
<text text-anchor="middle" x="485" y="-167.8" font-family="Times,serif" font-size="14.00" fill="#000000">ToastComponent </text>
</g>
<!-- CoreModule&#45;&gt;ToastComponent  -->
<g id="edge12" class="edge">
<title>CoreModule&#45;&gt;ToastComponent </title>
<path fill="none" stroke="#000000" stroke-dasharray="5,2" d="M358.4603,-122.2667C358.4603,-140.5552 358.4603,-166 358.4603,-166 358.4603,-166 416.9151,-166 416.9151,-166"/>
<polygon fill="#000000" stroke="#000000" points="416.9151,-169.5001 426.9151,-166 416.915,-162.5001 416.9151,-169.5001"/>
</g>
<!-- BreadcrumbComponent -->
<g id="node6" class="node">
<title>BreadcrumbComponent</title>
<polygon fill="#ffffb3" stroke="#000000" points="1610.0253,-190 1459.9747,-190 1459.9747,-154 1610.0253,-154 1610.0253,-190"/>
<text text-anchor="middle" x="1535" y="-167.8" font-family="Times,serif" font-size="14.00" fill="#000000">BreadcrumbComponent</text>
</g>
<!-- BreadcrumbComponent&#45;&gt;CoreModule -->
<g id="edge5" class="edge">
<title>BreadcrumbComponent&#45;&gt;CoreModule</title>
<path fill="none" stroke="#000000" d="M1535,-153.6198C1535,-129.7215 1535,-91 1535,-91 1535,-91 397.4457,-91 397.4457,-91"/>
<polygon fill="#000000" stroke="#000000" points="397.4458,-87.5001 387.4457,-91 397.4457,-94.5001 397.4458,-87.5001"/>
</g>
<!-- FooterComponent -->
<g id="node7" class="node">
<title>FooterComponent</title>
<polygon fill="#ffffb3" stroke="#000000" points="1441.8809,-190 1324.1191,-190 1324.1191,-154 1441.8809,-154 1441.8809,-190"/>
<text text-anchor="middle" x="1383" y="-167.8" font-family="Times,serif" font-size="14.00" fill="#000000">FooterComponent</text>
</g>
<!-- FooterComponent&#45;&gt;CoreModule -->
<g id="edge6" class="edge">
<title>FooterComponent&#45;&gt;CoreModule</title>
<path fill="none" stroke="#000000" d="M1383,-153.7521C1383,-130.9821 1383,-95 1383,-95 1383,-95 397.3217,-95 397.3217,-95"/>
<polygon fill="#000000" stroke="#000000" points="397.3218,-91.5001 387.3217,-95 397.3217,-98.5001 397.3218,-91.5001"/>
</g>
<!-- NotFoundComponent -->
<g id="node8" class="node">
<title>NotFoundComponent</title>
<polygon fill="#ffffb3" stroke="#000000" points="1306.1122,-190 1167.8878,-190 1167.8878,-154 1306.1122,-154 1306.1122,-190"/>
<text text-anchor="middle" x="1237" y="-167.8" font-family="Times,serif" font-size="14.00" fill="#000000">NotFoundComponent</text>
</g>
<!-- NotFoundComponent&#45;&gt;CoreModule -->
<g id="edge7" class="edge">
<title>NotFoundComponent&#45;&gt;CoreModule</title>
<path fill="none" stroke="#000000" d="M1237,-153.8314C1237,-132.502 1237,-100 1237,-100 1237,-100 397.373,-100 397.373,-100"/>
<polygon fill="#000000" stroke="#000000" points="397.3731,-96.5001 387.373,-100 397.373,-103.5001 397.3731,-96.5001"/>
</g>
<!-- ToastComponent -->
<g id="node9" class="node">
<title>ToastComponent</title>
<polygon fill="#ffffb3" stroke="#000000" points="1150.4356,-190 1037.5644,-190 1037.5644,-154 1150.4356,-154 1150.4356,-190"/>
<text text-anchor="middle" x="1094" y="-167.8" font-family="Times,serif" font-size="14.00" fill="#000000">ToastComponent</text>
</g>
<!-- ToastComponent&#45;&gt;CoreModule -->
<g id="edge8" class="edge">
<title>ToastComponent&#45;&gt;CoreModule</title>
<path fill="none" stroke="#000000" d="M1094,-153.7772C1094,-133.6348 1094,-104 1094,-104 1094,-104 397.2906,-104 397.2906,-104"/>
<polygon fill="#000000" stroke="#000000" points="397.2906,-100.5001 387.2906,-104 397.2906,-107.5001 397.2906,-100.5001"/>
</g>
<!-- DepartmentListPage -->
<g id="node14" class="node">
<title>DepartmentListPage</title>
<polygon fill="#ffffb3" stroke="#000000" points="1934.573,-122 1803.427,-122 1803.427,-86 1934.573,-86 1934.573,-122"/>
<text text-anchor="middle" x="1869" y="-99.8" font-family="Times,serif" font-size="14.00" fill="#000000">DepartmentListPage</text>
</g>
<!-- DepartmentModule -->
<g id="node16" class="node">
<title>DepartmentModule</title>
<polygon fill="#8dd3c7" stroke="#000000" points="2018.6331,-190 2015.6331,-194 1994.6331,-194 1991.6331,-190 1893.3669,-190 1893.3669,-154 2018.6331,-154 2018.6331,-190"/>
<text text-anchor="middle" x="1956" y="-167.8" font-family="Times,serif" font-size="14.00" fill="#000000">DepartmentModule</text>
</g>
<!-- DepartmentListPage&#45;&gt;DepartmentModule -->
<g id="edge13" class="edge">
<title>DepartmentListPage&#45;&gt;DepartmentModule</title>
<path fill="none" stroke="#000000" d="M1913.8601,-122.2228C1913.8601,-122.2228 1913.8601,-143.7269 1913.8601,-143.7269"/>
<polygon fill="#000000" stroke="#000000" points="1910.3602,-143.7269 1913.8601,-153.7269 1917.3602,-143.727 1910.3602,-143.7269"/>
</g>
<!-- DepartmentNewPage -->
<g id="node15" class="node">
<title>DepartmentNewPage</title>
<polygon fill="#ffffb3" stroke="#000000" points="1785.7227,-122 1650.2773,-122 1650.2773,-86 1785.7227,-86 1785.7227,-122"/>
<text text-anchor="middle" x="1718" y="-99.8" font-family="Times,serif" font-size="14.00" fill="#000000">DepartmentNewPage</text>
</g>
<!-- DepartmentNewPage&#45;&gt;DepartmentModule -->
<g id="edge14" class="edge">
<title>DepartmentNewPage&#45;&gt;DepartmentModule</title>
<path fill="none" stroke="#000000" d="M1718,-122.2228C1718,-142.3652 1718,-172 1718,-172 1718,-172 1883.157,-172 1883.157,-172"/>
<polygon fill="#000000" stroke="#000000" points="1883.157,-175.5001 1893.157,-172 1883.1569,-168.5001 1883.157,-175.5001"/>
</g>
<!-- DepartmentRoutingModule  -->
<g id="node19" class="node">
<title>DepartmentRoutingModule </title>
<polygon fill="#fb8072" stroke="#000000" points="2043.2506,-258 1868.7494,-258 1868.7494,-222 2043.2506,-222 2043.2506,-258"/>
<text text-anchor="middle" x="1956" y="-235.8" font-family="Times,serif" font-size="14.00" fill="#000000">DepartmentRoutingModule </text>
</g>
<!-- DepartmentModule&#45;&gt;DepartmentRoutingModule  -->
<g id="edge17" class="edge">
<title>DepartmentModule&#45;&gt;DepartmentRoutingModule </title>
<path fill="none" stroke="#000000" stroke-dasharray="5,2" d="M1956,-190.2228C1956,-190.2228 1956,-211.7269 1956,-211.7269"/>
<polygon fill="#000000" stroke="#000000" points="1952.5001,-211.7269 1956,-221.7269 1959.5001,-211.727 1952.5001,-211.7269"/>
</g>
<!-- DepartmentRoutingModule -->
<g id="node17" class="node">
<title>DepartmentRoutingModule</title>
<polygon fill="#8dd3c7" stroke="#000000" points="2129.2506,-122 2126.2506,-126 2105.2506,-126 2102.2506,-122 1958.7494,-122 1958.7494,-86 2129.2506,-86 2129.2506,-122"/>
<text text-anchor="middle" x="2044" y="-99.8" font-family="Times,serif" font-size="14.00" fill="#000000">DepartmentRoutingModule</text>
</g>
<!-- DepartmentRoutingModule&#45;&gt;DepartmentModule -->
<g id="edge15" class="edge">
<title>DepartmentRoutingModule&#45;&gt;DepartmentModule</title>
<path fill="none" stroke="#000000" d="M1988.7206,-122.2228C1988.7206,-122.2228 1988.7206,-143.7269 1988.7206,-143.7269"/>
<polygon fill="#000000" stroke="#000000" points="1985.2206,-143.7269 1988.7206,-153.7269 1992.2206,-143.727 1985.2206,-143.7269"/>
</g>
<!-- SharedModule -->
<g id="node18" class="node">
<title>SharedModule</title>
<polygon fill="#8dd3c7" stroke="#000000" points="2246.4231,-122 2243.4231,-126 2222.4231,-126 2219.4231,-122 2147.5769,-122 2147.5769,-86 2246.4231,-86 2246.4231,-122"/>
<text text-anchor="middle" x="2197" y="-99.8" font-family="Times,serif" font-size="14.00" fill="#000000">SharedModule</text>
</g>
<!-- SharedModule&#45;&gt;DepartmentModule -->
<g id="edge16" class="edge">
<title>SharedModule&#45;&gt;DepartmentModule</title>
<path fill="none" stroke="#000000" d="M2180.5963,-122.2667C2180.5963,-140.5552 2180.5963,-166 2180.5963,-166 2180.5963,-166 2028.8612,-166 2028.8612,-166"/>
<polygon fill="#000000" stroke="#000000" points="2028.8613,-162.5001 2018.8612,-166 2028.8612,-169.5001 2028.8613,-162.5001"/>
</g>
<!-- EmployeeModule -->
<g id="node24" class="node">
<title>EmployeeModule</title>
<polygon fill="#8dd3c7" stroke="#000000" points="2960.3132,-190 2957.3132,-194 2936.3132,-194 2933.3132,-190 2843.6868,-190 2843.6868,-154 2960.3132,-154 2960.3132,-190"/>
<text text-anchor="middle" x="2902" y="-167.8" font-family="Times,serif" font-size="14.00" fill="#000000">EmployeeModule</text>
</g>
<!-- SharedModule&#45;&gt;EmployeeModule -->
<g id="edge23" class="edge">
<title>SharedModule&#45;&gt;EmployeeModule</title>
<path fill="none" stroke="#000000" d="M2246.4973,-98C2341.4624,-98 2539.9201,-98 2539.9201,-98 2539.9201,-98 2539.9201,-178 2539.9201,-178 2539.9201,-178 2833.8256,-178 2833.8256,-178"/>
<polygon fill="#000000" stroke="#000000" points="2833.8256,-181.5001 2843.8256,-178 2833.8256,-174.5001 2833.8256,-181.5001"/>
</g>
<!-- ListComponent  -->
<g id="node28" class="node">
<title>ListComponent </title>
<polygon fill="#fb8072" stroke="#000000" points="2392.1115,-190 2285.8885,-190 2285.8885,-154 2392.1115,-154 2392.1115,-190"/>
<text text-anchor="middle" x="2339" y="-167.8" font-family="Times,serif" font-size="14.00" fill="#000000">ListComponent </text>
</g>
<!-- SharedModule&#45;&gt;ListComponent  -->
<g id="edge26" class="edge">
<title>SharedModule&#45;&gt;ListComponent </title>
<path fill="none" stroke="#000000" stroke-dasharray="5,2" d="M2213.4037,-122.2921C2213.4037,-144.2057 2213.4037,-178 2213.4037,-178 2213.4037,-178 2275.7359,-178 2275.7359,-178"/>
<polygon fill="#000000" stroke="#000000" points="2275.7359,-181.5001 2285.7359,-178 2275.7358,-174.5001 2275.7359,-181.5001"/>
</g>
<!-- EmployeeEditPage -->
<g id="node20" class="node">
<title>EmployeeEditPage</title>
<polygon fill="#ffffb3" stroke="#000000" points="3325.809,-122 3202.191,-122 3202.191,-86 3325.809,-86 3325.809,-122"/>
<text text-anchor="middle" x="3264" y="-99.8" font-family="Times,serif" font-size="14.00" fill="#000000">EmployeeEditPage</text>
</g>
<!-- EmployeeEditPage&#45;&gt;EmployeeModule -->
<g id="edge18" class="edge">
<title>EmployeeEditPage&#45;&gt;EmployeeModule</title>
<path fill="none" stroke="#000000" d="M3264,-122.2921C3264,-144.2057 3264,-178 3264,-178 3264,-178 2970.1616,-178 2970.1616,-178"/>
<polygon fill="#000000" stroke="#000000" points="2970.1616,-174.5001 2960.1616,-178 2970.1615,-181.5001 2970.1616,-174.5001"/>
</g>
<!-- EmployeeListPage -->
<g id="node21" class="node">
<title>EmployeeListPage</title>
<polygon fill="#ffffb3" stroke="#000000" points="3183.7534,-122 3062.2466,-122 3062.2466,-86 3183.7534,-86 3183.7534,-122"/>
<text text-anchor="middle" x="3123" y="-99.8" font-family="Times,serif" font-size="14.00" fill="#000000">EmployeeListPage</text>
</g>
<!-- EmployeeListPage&#45;&gt;EmployeeModule -->
<g id="edge19" class="edge">
<title>EmployeeListPage&#45;&gt;EmployeeModule</title>
<path fill="none" stroke="#000000" d="M3123,-122.2667C3123,-140.5552 3123,-166 3123,-166 3123,-166 2970.3542,-166 2970.3542,-166"/>
<polygon fill="#000000" stroke="#000000" points="2970.3543,-162.5001 2960.3542,-166 2970.3542,-169.5001 2970.3543,-162.5001"/>
</g>
<!-- EmployeeNewPage -->
<g id="node22" class="node">
<title>EmployeeNewPage</title>
<polygon fill="#ffffb3" stroke="#000000" points="3044.4032,-122 2917.5968,-122 2917.5968,-86 3044.4032,-86 3044.4032,-122"/>
<text text-anchor="middle" x="2981" y="-99.8" font-family="Times,serif" font-size="14.00" fill="#000000">EmployeeNewPage</text>
</g>
<!-- EmployeeNewPage&#45;&gt;EmployeeModule -->
<g id="edge20" class="edge">
<title>EmployeeNewPage&#45;&gt;EmployeeModule</title>
<path fill="none" stroke="#000000" d="M2938.9775,-122.2228C2938.9775,-122.2228 2938.9775,-143.7269 2938.9775,-143.7269"/>
<polygon fill="#000000" stroke="#000000" points="2935.4776,-143.7269 2938.9775,-153.7269 2942.4776,-143.727 2935.4776,-143.7269"/>
</g>
<!-- ModalDeleteComponent -->
<g id="node23" class="node">
<title>ModalDeleteComponent</title>
<polygon fill="#ffffb3" stroke="#000000" points="2900.4144,-122 2745.5856,-122 2745.5856,-86 2900.4144,-86 2900.4144,-122"/>
<text text-anchor="middle" x="2823" y="-99.8" font-family="Times,serif" font-size="14.00" fill="#000000">ModalDeleteComponent</text>
</g>
<!-- ModalDeleteComponent&#45;&gt;EmployeeModule -->
<g id="edge21" class="edge">
<title>ModalDeleteComponent&#45;&gt;EmployeeModule</title>
<path fill="none" stroke="#000000" d="M2872.0253,-122.2228C2872.0253,-122.2228 2872.0253,-143.7269 2872.0253,-143.7269"/>
<polygon fill="#000000" stroke="#000000" points="2868.5253,-143.7269 2872.0253,-153.7269 2875.5253,-143.727 2868.5253,-143.7269"/>
</g>
<!-- EmployeeRoutingModule  -->
<g id="node26" class="node">
<title>EmployeeRoutingModule </title>
<polygon fill="#fb8072" stroke="#000000" points="2984.4306,-258 2819.5694,-258 2819.5694,-222 2984.4306,-222 2984.4306,-258"/>
<text text-anchor="middle" x="2902" y="-235.8" font-family="Times,serif" font-size="14.00" fill="#000000">EmployeeRoutingModule </text>
</g>
<!-- EmployeeModule&#45;&gt;EmployeeRoutingModule  -->
<g id="edge24" class="edge">
<title>EmployeeModule&#45;&gt;EmployeeRoutingModule </title>
<path fill="none" stroke="#000000" stroke-dasharray="5,2" d="M2902,-190.2228C2902,-190.2228 2902,-211.7269 2902,-211.7269"/>
<polygon fill="#000000" stroke="#000000" points="2898.5001,-211.7269 2902,-221.7269 2905.5001,-211.727 2898.5001,-211.7269"/>
</g>
<!-- EmployeeRoutingModule -->
<g id="node25" class="node">
<title>EmployeeRoutingModule</title>
<polygon fill="#8dd3c7" stroke="#000000" points="2721.9312,-122 2718.9312,-126 2697.9312,-126 2694.9312,-122 2560.0688,-122 2560.0688,-86 2721.9312,-86 2721.9312,-122"/>
<text text-anchor="middle" x="2641" y="-99.8" font-family="Times,serif" font-size="14.00" fill="#000000">EmployeeRoutingModule</text>
</g>
<!-- EmployeeRoutingModule&#45;&gt;EmployeeModule -->
<g id="edge22" class="edge">
<title>EmployeeRoutingModule&#45;&gt;EmployeeModule</title>
<path fill="none" stroke="#000000" d="M2641,-122.2667C2641,-140.5552 2641,-166 2641,-166 2641,-166 2833.7514,-166 2833.7514,-166"/>
<polygon fill="#000000" stroke="#000000" points="2833.7514,-169.5001 2843.7514,-166 2833.7513,-162.5001 2833.7514,-169.5001"/>
</g>
<!-- ListComponent -->
<g id="node27" class="node">
<title>ListComponent</title>
<polygon fill="#ffffb3" stroke="#000000" points="2519.6109,-190 2416.3891,-190 2416.3891,-154 2519.6109,-154 2519.6109,-190"/>
<text text-anchor="middle" x="2468" y="-167.8" font-family="Times,serif" font-size="14.00" fill="#000000">ListComponent</text>
</g>
<!-- ListComponent&#45;&gt;SharedModule -->
<g id="edge25" class="edge">
<title>ListComponent&#45;&gt;SharedModule</title>
<path fill="none" stroke="#000000" d="M2468,-153.7333C2468,-135.4448 2468,-110 2468,-110 2468,-110 2256.3905,-110 2256.3905,-110"/>
<polygon fill="#000000" stroke="#000000" points="2256.3905,-106.5001 2246.3905,-110 2256.3904,-113.5001 2256.3905,-106.5001"/>
</g>
</g>
</svg>
