<?xml version="1.0" encoding="UTF-8" standalone="no"?>
<!DOCTYPE svg PUBLIC "-//W3C//DTD SVG 1.1//EN"
 "http://www.w3.org/Graphics/SVG/1.1/DTD/svg11.dtd">
<!-- Generated by graphviz version 2.40.1 (20161225.0304)
 -->
<!-- Title: dependencies Pages: 1 -->
<svg width="643pt" height="284pt"
 viewBox="0.00 0.00 643.00 284.00" xmlns="http://www.w3.org/2000/svg" xmlns:xlink="http://www.w3.org/1999/xlink">
<g id="graph0" class="graph" transform="scale(1 1) rotate(0) translate(4 280)">
<title>dependencies</title>
<polygon fill="#ffffff" stroke="transparent" points="-4,4 -4,-280 639,-280 639,4 -4,4"/>
<text text-anchor="start" x="296.5091" y="-42.4" font-family="sans-serif" font-weight="bold" font-size="14.00" fill="#000000">Legend</text>
<polygon fill="#ffffb3" stroke="transparent" points="83.5,-10 83.5,-30 103.5,-30 103.5,-10 83.5,-10"/>
<text text-anchor="start" x="107.129" y="-15.4" font-family="sans-serif" font-size="14.00" fill="#000000"> &#160;Declarations</text>
<polygon fill="#8dd3c7" stroke="transparent" points="196.5,-10 196.5,-30 216.5,-30 216.5,-10 196.5,-10"/>
<text text-anchor="start" x="220.2251" y="-15.4" font-family="sans-serif" font-size="14.00" fill="#000000"> &#160;Module</text>
<polygon fill="#80b1d3" stroke="transparent" points="282.5,-10 282.5,-30 302.5,-30 302.5,-10 282.5,-10"/>
<text text-anchor="start" x="306.2812" y="-15.4" font-family="sans-serif" font-size="14.00" fill="#000000"> &#160;Bootstrap</text>
<polygon fill="#fdb462" stroke="transparent" points="379.5,-10 379.5,-30 399.5,-30 399.5,-10 379.5,-10"/>
<text text-anchor="start" x="403.1732" y="-15.4" font-family="sans-serif" font-size="14.00" fill="#000000"> &#160;Providers</text>
<polygon fill="#fb8072" stroke="transparent" points="475.5,-10 475.5,-30 495.5,-30 495.5,-10 475.5,-10"/>
<text text-anchor="start" x="499.2258" y="-15.4" font-family="sans-serif" font-size="14.00" fill="#000000"> &#160;Exports</text>
<g id="clust1" class="cluster">
<title>cluster_CoreModule</title>
<polygon fill="none" stroke="#000000" stroke-dasharray="1,5" points="8,-70 8,-268 627,-268 627,-70 8,-70"/>
</g>
<g id="clust2" class="cluster">
<title>cluster_CoreModule_declarations</title>
<polygon fill="none" stroke="#000000" points="25,-78 25,-130 613,-130 613,-78 25,-78"/>
</g>
<g id="clust8" class="cluster">
<title>cluster_CoreModule_exports</title>
<polygon fill="none" stroke="#000000" points="16,-208 16,-260 619,-260 619,-208 16,-208"/>
</g>
<!-- BreadcrumbComponent -->
<g id="node1" class="node">
<title>BreadcrumbComponent</title>
<polygon fill="#ffffb3" stroke="#000000" points="605.0253,-122 454.9747,-122 454.9747,-86 605.0253,-86 605.0253,-122"/>
<text text-anchor="middle" x="530" y="-99.8" font-family="Times,serif" font-size="14.00" fill="#000000">BreadcrumbComponent</text>
</g>
<!-- CoreModule -->
<g id="node5" class="node">
<title>CoreModule</title>
<polygon fill="#8dd3c7" stroke="#000000" points="278.2619,-187 275.2619,-191 254.2619,-191 251.2619,-187 191.7381,-187 191.7381,-151 278.2619,-151 278.2619,-187"/>
<text text-anchor="middle" x="235" y="-164.8" font-family="Times,serif" font-size="14.00" fill="#000000">CoreModule</text>
</g>
<!-- BreadcrumbComponent&#45;&gt;CoreModule -->
<g id="edge1" class="edge">
<title>BreadcrumbComponent&#45;&gt;CoreModule</title>
<path fill="none" stroke="#000000" d="M555.8374,-122.2667C555.8374,-140.5552 555.8374,-166 555.8374,-166 555.8374,-166 288.2696,-166 288.2696,-166"/>
<polygon fill="#000000" stroke="#000000" points="288.2696,-162.5001 278.2696,-166 288.2695,-169.5001 288.2696,-162.5001"/>
</g>
<!-- FooterComponent -->
<g id="node2" class="node">
<title>FooterComponent</title>
<polygon fill="#ffffb3" stroke="#000000" points="436.8809,-122 319.1191,-122 319.1191,-86 436.8809,-86 436.8809,-122"/>
<text text-anchor="middle" x="378" y="-99.8" font-family="Times,serif" font-size="14.00" fill="#000000">FooterComponent</text>
</g>
<!-- FooterComponent&#45;&gt;CoreModule -->
<g id="edge2" class="edge">
<title>FooterComponent&#45;&gt;CoreModule</title>
<path fill="none" stroke="#000000" d="M397.6468,-122.0091C397.6468,-138.0494 397.6468,-159 397.6468,-159 397.6468,-159 288.5864,-159 288.5864,-159"/>
<polygon fill="#000000" stroke="#000000" points="288.5864,-155.5001 278.5864,-159 288.5863,-162.5001 288.5864,-155.5001"/>
</g>
<!-- NotFoundComponent -->
<g id="node3" class="node">
<title>NotFoundComponent</title>
<polygon fill="#ffffb3" stroke="#000000" points="301.1122,-122 162.8878,-122 162.8878,-86 301.1122,-86 301.1122,-122"/>
<text text-anchor="middle" x="232" y="-99.8" font-family="Times,serif" font-size="14.00" fill="#000000">NotFoundComponent</text>
</g>
<!-- NotFoundComponent&#45;&gt;CoreModule -->
<g id="edge3" class="edge">
<title>NotFoundComponent&#45;&gt;CoreModule</title>
<path fill="none" stroke="#000000" d="M235,-122.1061C235,-122.1061 235,-140.991 235,-140.991"/>
<polygon fill="#000000" stroke="#000000" points="231.5001,-140.9909 235,-150.991 238.5001,-140.991 231.5001,-140.9909"/>
</g>
<!-- ToastComponent -->
<g id="node4" class="node">
<title>ToastComponent</title>
<polygon fill="#ffffb3" stroke="#000000" points="145.4356,-122 32.5644,-122 32.5644,-86 145.4356,-86 145.4356,-122"/>
<text text-anchor="middle" x="89" y="-99.8" font-family="Times,serif" font-size="14.00" fill="#000000">ToastComponent</text>
</g>
<!-- ToastComponent&#45;&gt;CoreModule -->
<g id="edge4" class="edge">
<title>ToastComponent&#45;&gt;CoreModule</title>
<path fill="none" stroke="#000000" d="M104.2391,-122.0225C104.2391,-139.3734 104.2391,-163 104.2391,-163 104.2391,-163 181.4585,-163 181.4585,-163"/>
<polygon fill="#000000" stroke="#000000" points="181.4586,-166.5001 191.4585,-163 181.4585,-159.5001 181.4586,-166.5001"/>
</g>
<!-- BreadcrumbComponent  -->
<g id="node6" class="node">
<title>BreadcrumbComponent </title>
<polygon fill="#fb8072" stroke="#000000" points="611.0246,-252 456.9754,-252 456.9754,-216 611.0246,-216 611.0246,-252"/>
<text text-anchor="middle" x="534" y="-229.8" font-family="Times,serif" font-size="14.00" fill="#000000">BreadcrumbComponent </text>
</g>
<!-- CoreModule&#45;&gt;BreadcrumbComponent  -->
<g id="edge5" class="edge">
<title>CoreModule&#45;&gt;BreadcrumbComponent </title>
<path fill="none" stroke="#000000" stroke-dasharray="5,2" d="M278.3062,-173C354.9334,-173 506.4126,-173 506.4126,-173 506.4126,-173 506.4126,-205.698 506.4126,-205.698"/>
<polygon fill="#000000" stroke="#000000" points="502.9127,-205.698 506.4126,-215.698 509.9127,-205.698 502.9127,-205.698"/>
</g>
<!-- FooterComponent  -->
<g id="node7" class="node">
<title>FooterComponent </title>
<polygon fill="#fb8072" stroke="#000000" points="438.8814,-252 317.1186,-252 317.1186,-216 438.8814,-216 438.8814,-252"/>
<text text-anchor="middle" x="378" y="-229.8" font-family="Times,serif" font-size="14.00" fill="#000000">FooterComponent </text>
</g>
<!-- CoreModule&#45;&gt;FooterComponent  -->
<g id="edge6" class="edge">
<title>CoreModule&#45;&gt;FooterComponent </title>
<path fill="none" stroke="#000000" stroke-dasharray="5,2" d="M278.4897,-180C314.0039,-180 358.3532,-180 358.3532,-180 358.3532,-180 358.3532,-205.7181 358.3532,-205.7181"/>
<polygon fill="#000000" stroke="#000000" points="354.8533,-205.718 358.3532,-215.7181 361.8533,-205.7181 354.8533,-205.718"/>
</g>
<!-- NotFoundComponent  -->
<g id="node8" class="node">
<title>NotFoundComponent </title>
<polygon fill="#fb8072" stroke="#000000" points="299.6127,-252 158.3873,-252 158.3873,-216 299.6127,-216 299.6127,-252"/>
<text text-anchor="middle" x="229" y="-229.8" font-family="Times,serif" font-size="14.00" fill="#000000">NotFoundComponent </text>
</g>
<!-- CoreModule&#45;&gt;NotFoundComponent  -->
<g id="edge7" class="edge">
<title>CoreModule&#45;&gt;NotFoundComponent </title>
<path fill="none" stroke="#000000" stroke-dasharray="5,2" d="M235,-187.1061C235,-187.1061 235,-205.991 235,-205.991"/>
<polygon fill="#000000" stroke="#000000" points="231.5001,-205.9909 235,-215.991 238.5001,-205.991 231.5001,-205.9909"/>
</g>
<!-- ToastComponent  -->
<g id="node9" class="node">
<title>ToastComponent </title>
<polygon fill="#fb8072" stroke="#000000" points="139.9348,-252 24.0652,-252 24.0652,-216 139.9348,-216 139.9348,-252"/>
<text text-anchor="middle" x="82" y="-229.8" font-family="Times,serif" font-size="14.00" fill="#000000">ToastComponent </text>
</g>
<!-- CoreModule&#45;&gt;ToastComponent  -->
<g id="edge8" class="edge">
<title>CoreModule&#45;&gt;ToastComponent </title>
<path fill="none" stroke="#000000" stroke-dasharray="5,2" d="M191.6916,-175C142.3616,-175 68.5109,-175 68.5109,-175 68.5109,-175 68.5109,-205.9775 68.5109,-205.9775"/>
<polygon fill="#000000" stroke="#000000" points="65.011,-205.9774 68.5109,-215.9775 72.011,-205.9775 65.011,-205.9774"/>
</g>
</g>
</svg>
